HIERARCHY
ROOT hip
{
  OFFSET 0 0 0
  CHANNELS 6 Xposition Yposition Zposition Zrotation Yrotation Xrotation
  JOINT abdomen
  {
    OFFSET 0 20.6881 -0.73152
    CHANNELS 3 Zrotation Xrotation Yrotation
    JOINT chest
    {
      OFFSET 0 11.7043 -0.48768
      CHANNELS 3 Zrotation Xrotation Yrotation
      JOINT neck
      {
        OFFSET 0 22.1894 -2.19456
        CHANNELS 3 Zrotation Xrotation Yrotation
        JOINT head
        {
          OFFSET -0.24384 7.07133 1.2192
          CHANNELS 3 Zrotation Xrotation Yrotation
          JOINT leftEye
          {
            OFFSET 4.14528 8.04674 8.04672
            CHANNELS 3 Zrotation Xrotation Yrotation
            End Site
            {
              OFFSET 1 0 0
            }
          }
          JOINT rightEye
          {
            OFFSET -3.6576 8.04674 8.04672
            CHANNELS 3 Zrotation Xrotation Yrotation
            End Site
            {
              OFFSET 1 0 0
            }
          }
        }
      }
      JOINT rCollar
      {
        OFFSET -2.68224 19.2634 -4.8768
        CHANNELS 3 Zrotation Xrotation Yrotation
        JOINT rShldr
        {
          OFFSET -8.77824 -1.95073 1.46304
          CHANNELS 3 Zrotation Xrotation Yrotation
          JOINT rForeArm
          {
            OFFSET -28.1742 -1.7115 0.48768
            CHANNELS 3 Zrotation Xrotation Yrotation
            JOINT rHand
            {
              OFFSET -22.5879 0.773209 7.07136
              CHANNELS 3 Zrotation Xrotation Yrotation
              JOINT rThumb1
              {
                OFFSET -1.2192 -0.487915 3.41376
                CHANNELS 3 Zrotation Xrotation Yrotation
                JOINT rThumb2
                {
                  OFFSET -3.37035 -0.52449 3.41376
                  CHANNELS 3 Zrotation Xrotation Yrotation
                  End Site
                  {
                    OFFSET -1.78271 -1.18214 1.43049
                  }
                }
              }
              JOINT rIndex1
              {
                OFFSET -7.75947 0.938293 5.60832
                CHANNELS 3 Zrotation Xrotation Yrotation
                JOINT rIndex2
                {
                  OFFSET -2.54057 -0.884171 1.56538
                  CHANNELS 3 Zrotation Xrotation Yrotation
                  End Site
                  {
                    OFFSET -1.62519 -0.234802 1.16502
                  }
                }
              }
              JOINT rMid1
              {
                OFFSET -8.24714 1.18213 3.41376
                CHANNELS 3 Zrotation Xrotation Yrotation
                JOINT rMid2
                {
                  OFFSET -3.10165 -0.590103 1.0647
                  CHANNELS 3 Zrotation Xrotation Yrotation
                  End Site
                  {
                    OFFSET -2.48547 -0.328903 0.83742
                  }
                }
              }
              JOINT rRing1
              {
                OFFSET -8.82822 0.546677 1.51678
                CHANNELS 3 Zrotation Xrotation Yrotation
                JOINT rRing2
                {
                  OFFSET -2.60934 -0.819778 -0.0198488
                  CHANNELS 3 Zrotation Xrotation Yrotation
                  End Site
                  {
                    OFFSET -2.33842 -0.294052 0.168128
                  }
                }
              }
              JOINT rPinky1
              {
                OFFSET -8.27202 -0.0477905 -0.4584
                CHANNELS 3 Zrotation Xrotation Yrotation
                JOINT rPinky2
                {
                  OFFSET -1.82734 -0.647385 -0.700984
                  CHANNELS 3 Zrotation Xrotation Yrotation
                  End Site
                  {
                    OFFSET -1.69225 -0.51767 -0.607171
                  }
                }
              }
            }
          }
        }
      }
      JOINT lCollar
      {
        OFFSET 2.68224 19.2634 -4.8768
        CHANNELS 3 Zrotation Xrotation Yrotation
        JOINT lShldr
        {
          OFFSET 8.77824 -1.95073 1.46304
          CHANNELS 3 Zrotation Xrotation Yrotation
          JOINT lForeArm
          {
            OFFSET 28.1742 -1.7115 0.48768
            CHANNELS 3 Zrotation Xrotation Yrotation
            JOINT lHand
            {
              OFFSET 22.5879 0.773209 7.07136
              CHANNELS 3 Zrotation Xrotation Yrotation
              JOINT lThumb1
              {
                OFFSET 1.2192 -0.487915 3.41376
                CHANNELS 3 Zrotation Xrotation Yrotation
                JOINT lThumb2
                {
                  OFFSET 3.37035 -0.52449 3.41376
                  CHANNELS 3 Zrotation Xrotation Yrotation
                  End Site
                  {
                    OFFSET 1.78271 -1.18214 1.43049
                  }
                }
              }
              JOINT lIndex1
              {
                OFFSET 7.75947 0.938293 5.60832
                CHANNELS 3 Zrotation Xrotation Yrotation
                JOINT lIndex2
                {
                  OFFSET 2.54057 -0.884171 1.56538
                  CHANNELS 3 Zrotation Xrotation Yrotation
                  End Site
                  {
                    OFFSET 1.62519 -0.234802 1.16502
                  }
                }
              }
              JOINT lMid1
              {
                OFFSET 8.24714 1.18213 3.41376
                CHANNELS 3 Zrotation Xrotation Yrotation
                JOINT lMid2
                {
                  OFFSET 3.10165 -0.590103 1.0647
                  CHANNELS 3 Zrotation Xrotation Yrotation
                  End Site
                  {
                    OFFSET 2.48547 -0.328903 0.83742
                  }
                }
              }
              JOINT lRing1
              {
                OFFSET 8.82822 0.546677 1.51678
                CHANNELS 3 Zrotation Xrotation Yrotation
                JOINT lRing2
                {
                  OFFSET 2.60934 -0.819778 -0.0198488
                  CHANNELS 3 Zrotation Xrotation Yrotation
                  End Site
                  {
                    OFFSET 2.33842 -0.294052 0.168128
                  }
                }
              }
              JOINT lPinky1
              {
                OFFSET 8.27202 -0.0477905 -0.4584
                CHANNELS 3 Zrotation Xrotation Yrotation
                JOINT lPinky2
                {
                  OFFSET 1.82734 -0.647385 -0.700984
                  CHANNELS 3 Zrotation Xrotation Yrotation
                  End Site
                  {
                    OFFSET 1.69225 -0.51767 -0.607171
                  }
                }
              }
            }
          }
        }
      }
    }
  }
  JOINT rButtock
  {
    OFFSET -8.77824 4.35084 1.2192
    CHANNELS 3 Zrotation Xrotation Yrotation
    JOINT rThigh
    {
      OFFSET 0 -1.70687 -2.19456
      CHANNELS 3 Zrotation Xrotation Yrotation
      JOINT rShin
      {
        OFFSET 0 -36.8199 0.73152
        CHANNELS 3 Zrotation Xrotation Yrotation
        JOINT rFoot
        {
          OFFSET 0.73152 -45.1104 -5.12064
          CHANNELS 3 Zrotation Xrotation Yrotation
          End Site
          {
            OFFSET -1.1221 -3.69964 12.103
          }
        }
      }
    }
  }
  JOINT lButtock
  {
    OFFSET 8.77824 4.35084 1.2192
    CHANNELS 3 Zrotation Xrotation Yrotation
    JOINT lThigh
    {
      OFFSET 0 -1.70687 -2.19456
      CHANNELS 3 Zrotation Xrotation Yrotation
      JOINT lShin
      {
        OFFSET 0 -36.8199 0.73152
        CHANNELS 3 Zrotation Xrotation Yrotation
        JOINT lFoot
        {
          OFFSET -0.73152 -45.1104 -5.12064
          CHANNELS 3 Zrotation Xrotation Yrotation
          End Site
          {
            OFFSET 1.1221 -3.69964 12.103
          }
        }
      }
    }
  }
}
MOTION
Frames:	9
Frame Time:	0.00833333
-1.7808 82.4855 49.5864 0.0 0.0 0.0 -4.35903 0.00629533 -0.117465 -1.20168 0.0324821 -0.207696 1.02113e-14 -1.59028e-15 1.73937e-15 2.85318e-14 -6.36111e-15 5.06746e-15 -0.0 0.0 0.0 -0.0 0.0 0.0 4.91806e-15 -1.2094e-16 1.09332e-15 1.01836e-13 -3.3048e-15 1.88845e-14 1.69707e-12 -6.29949e-13 3.05333e-13 1.96708e-11 -5.81445e-15 3.40001e-12 4.63395e-11 -1.37642e-12 8.04044e-12 8.00243e-11 -2.37905e-12 1.3872e-11 4.63447e-11 -1.37479e-12 8.03408e-12 7.73091 5.47488 0.417314 4.63397e-11 -1.37658e-12 8.03726e-12 2.90554 0.965183 0.102902 4.63516e-11 -1.37579e-12 8.03488e-12 10.2786 0.731801 0.0259123 4.63381e-11 -1.37559e-12 8.04362e-12 2.22167 -0.733487 -0.20892 4.92214e-15 -1.26958e-16 7.95139e-16 9.74104e-14 -3.00041e-15 1.70955e-14 1.73554e-12 4.19634e-13 3.11694e-13 1.96233e-11 -1.04061e-12 3.40001e-12 4.63289e-11 -1.34831e-12 8.0468e-12 8.00053e-11 -2.32817e-12 1.3903e-11 4.63228e-11 -1.34378e-12 8.05634e-12 -7.73091 5.47488 -0.417314 4.63267e-11 -1.34696e-12 8.0468e-12 -2.90554 0.965183 -0.102902 4.63158e-11 -1.34756e-12 8.04919e-12 -10.2786 0.731801 -0.0259123 4.63246e-11 -1.35174e-12 8.04362e-12 -2.22167 -0.733487 0.20892 -2.03217e-16 0.0 -3.88251e-19 -2.89151 -1.94436 0.0304708 -0.00794897 -2.07875 -0.0648836 -0.418939 4.00219 0.126625 2.03217e-16 0.0 3.88251e-19 -3.72533 -11.2507 0.483795 -0.014313 14.7726 -0.388796 0.544785 -3.54244 0.0125141
-3.52933 82.1657 47.7778 -6.371 -3.5534 7.8559 -3.39189 -2.36372 0.311512 -1.25472 -2.99242 -0.150461 -3.37871 4.44319 -3.70696 5.43483 -1.85983 -7.20815 -0.0 0.0 0.0 -0.0 0.0 0.0 3.03115e-14 9.12026e-15 4.00986e-14 22.6934 2.1878 -3.507 -3.83911 -1.67497 6.06954 0.229315 10.6574 1.40594 1.18963e-10 1.93122e-10 -3.92633e-10 1.94236e-10 3.42269e-10 -6.79974e-10 1.1897e-10 1.93121e-10 -3.92641e-10 7.73091 5.47488 0.417314 1.18963e-10 1.93121e-10 -3.92635e-10 2.90554 0.965183 0.102902 1.18973e-10 1.9312e-10 -3.92637e-10 10.2786 0.731801 0.0259123 1.18961e-10 1.93122e-10 -3.9263e-10 2.22167 -0.733487 -0.20892 3.03331e-14 9.11209e-15 3.98719e-14 -23.1931 4.6759 2.73216 3.09326 -1.23765 -4.99837 -0.113595 7.4882 -1.02022 -6.39491e-10 -4.82313e-10 2.71797e-11 -1.10348e-09 -8.21629e-10 6.25335e-11 -6.39497e-10 -4.82311e-10 2.71893e-11 -7.73091 5.47488 -0.417314 -6.39494e-10 -4.82315e-10 2.71757e-11 -2.90554 0.965183 -0.102902 -6.39503e-10 -4.82314e-10 2.71806e-11 -10.2786 0.731801 -0.0259123 -6.39491e-10 -4.82317e-10 2.71717e-11 -2.22167 -0.733487 0.20892 -2.03217e-16 0.0 -3.88251e-19 -2.03999 -2.54959 7.08843 0.00553056 -1.88979 0.0370746 -0.772192 1.63596 -5.99742 2.03217e-16 0.0 3.88251e-19 -4.58164 -9.68808 -11.2811 -0.00548051 14.2245 -0.243942 1.53422 -9.97501 14.5935
-3.52 82.1653 47.7861 -6.3371 -3.5234 7.819 -2.31346 -4.85199 0.770436 -1.30976 -6.19764 -0.0902858 -6.32197 9.07535 -7.70029 10.6791 -3.73079 -14.8523 -0.0 0.0 0.0 -0.0 0.0 0.0 5.84326e-14 1.65497e-14 8.34896e-14 46.9754 4.46696 -7.23377 -7.51692 -3.38489 12.507 -0.137115 21.9092 3.06464 1.69857e-10 4.21093e-10 -8.19623e-10 2.70261e-10 7.44667e-10 -1.41856e-09 1.69866e-10 4.21089e-10 -8.19632e-10 7.73091 5.47488 0.417314 1.69857e-10 4.2109e-10 -8.19623e-10 2.90554 0.965183 0.102902 1.69864e-10 4.21088e-10 -8.19626e-10 10.2786 0.731801 0.0259123 1.69853e-10 4.21091e-10 -8.1962e-10 2.22167 -0.733487 -0.20892 5.84753e-14 1.6539e-14 8.33405e-14 -48.2015 9.58466 5.68116 6.13013 -2.51505 -10.2909 0.0660579 15.3967 -2.1584 -1.36207e-09 -1.00289e-09 2.7964e-11 -2.35079e-09 -1.709e-09 8.03353e-11 -1.36207e-09 -1.00289e-09 2.79738e-11 -7.73091 5.47488 -0.417314 -1.36207e-09 -1.0029e-09 2.79557e-11 -2.90554 0.965183 -0.102902 -1.36208e-09 -1.0029e-09 2.79634e-11 -10.2786 0.731801 -0.0259123 -1.36206e-09 -1.0029e-09 2.79507e-11 -2.22167 -0.733487 0.20892 -2.03217e-16 0.0 -3.88251e-19 -0.965228 -3.12007 14.5539 0.0190691 -1.68832 0.144796 -1.69105 -0.825397 -12.4628 2.03217e-16 0.0 3.88251e-19 -4.78072 -7.71734 -23.5944 0.00685747 13.6426 -0.0917799 6.07434 -15.1134 30.711
-3.50745 82.1659 47.7941 -6.2835 -3.5171 7.7861 -1.35049 -7.10237 1.17771 -1.34265 -9.04226 -0.0358215 -8.38439 13.1036 -11.3877 14.9328 -5.22735 -21.7078 -0.0 0.0 0.0 -0.0 0.0 0.0 8.10984e-14 2.76027e-14 1.18109e-13 68.883 6.46484 -10.5814 -10.4695 -4.79978 18.2671 -1.11613 31.8881 4.88346 2.6421e-10 5.8212e-10 -1.19398e-09 4.22659e-10 1.03157e-09 -2.06767e-09 2.6422e-10 5.82113e-10 -1.19399e-09 7.73091 5.47488 0.417314 2.6421e-10 5.82115e-10 -1.19398e-09 2.90554 0.965183 0.102902 2.64215e-10 5.82112e-10 -1.19398e-09 10.2786 0.731801 0.0259123 2.64205e-10 5.82117e-10 -1.19398e-09 2.22167 -0.733487 -0.20892 8.11549e-14 2.75902e-14 1.18025e-13 -70.9463 13.8982 8.41732 8.63909 -3.6001 -15.0219 0.514493 22.4349 -3.28331 -2.01113e-09 -1.44424e-09 6.54454e-11 -3.47046e-09 -2.46023e-09 1.59795e-10 -2.01114e-09 -1.44425e-09 6.54551e-11 -7.73091 5.47488 -0.417314 -2.01114e-09 -1.44425e-09 6.54336e-11 -2.90554 0.965183 -0.102902 -2.01114e-09 -1.44425e-09 6.54434e-11 -10.2786 0.731801 -0.0259123 -2.01112e-09 -1.44425e-09 6.54278e-11 -2.22167 -0.733487 0.20892 -2.03217e-16 0.0 -3.88251e-19 0.0960458 -3.5605 21.2262 0.0304714 -1.51186 0.240929 -2.97337 -2.91518 -18.262 2.03217e-16 0.0 3.88251e-19 -4.36637 -5.87962 -34.5103 0.0207212 13.1281 0.04364 12.5451 -17.1544 45.6278
-3.51067 82.1671 47.7967 -6.285 -3.5334 7.7763 -0.752046 -8.75943 1.44797 -1.33292 -10.9853 0.00378378 -9.48921 15.8369 -14.0568 17.6677 -6.12464 -26.5119 -0.0 0.0 0.0 -0.0 0.0 0.0 9.0126e-14 4.77145e-14 1.308e-13 84.2916 7.85303 -12.9243 -12.344 -5.69285 22.2778 -2.28173 38.764 6.47977 4.67211e-10 5.75785e-10 -1.43676e-09 7.65991e-10 1.02972e-09 -2.49306e-09 4.67221e-10 5.75777e-10 -1.43677e-09 7.73091 5.47488 0.417314 4.67211e-10 5.75779e-10 -1.43676e-09 2.90554 0.965183 0.102902 4.67215e-10 5.75776e-10 -1.43676e-09 10.2786 0.731801 0.0259123 4.67205e-10 5.75781e-10 -1.43676e-09 2.22167 -0.733487 -0.20892 9.01777e-14 4.77021e-14 1.30751e-13 -87.056 16.847 10.4108 10.2778 -4.31194 -18.3235 1.01269 27.3253 -4.16432 -2.47642e-09 -1.68752e-09 1.94669e-10 -4.27106e-09 -2.87108e-09 3.93397e-10 -2.47643e-09 -1.68752e-09 1.94679e-10 -7.73091 5.47488 -0.417314 -2.47642e-09 -1.68752e-09 1.94656e-10 -2.90554 0.965183 -0.102902 -2.47643e-09 -1.68752e-09 1.94667e-10 -10.2786 0.731801 -0.0259123 -2.47641e-09 -1.68752e-09 1.9465e-10 -2.22167 -0.733487 0.20892 -2.03217e-16 0.0 -3.88251e-19 0.833854 -3.84092 25.8994 0.0379852 -1.39792 0.308133 -4.12057 -4.28203 -22.3529 2.03217e-16 0.0 3.88251e-19 -3.82588 -4.66142 -42.1239 0.0323532 12.7821 0.138668 17.8475 -16.7578 55.9867
-3.4961 82.1554 47.8079 -6.1322 -3.5405 7.8971 -0.72579 -9.61181 1.51566 -1.26073 -11.6538 0.022433 -9.81861 16.9089 -15.1256 18.6565 -6.3998 -28.4017 -0.0 0.0 0.0 -0.0 0.0 0.0 7.60994e-14 9.24355e-14 1.06663e-13 90.3519 8.45948 -13.8182 -13.0141 -6.00024 23.7965 -2.86364 41.357 7.19221 9.1192e-10 2.61791e-10 -1.4895e-09 1.53122e-09 4.98904e-10 -2.59794e-09 9.11929e-10 2.61783e-10 -1.48951e-09 7.73091 5.47488 0.417314 9.11919e-10 2.61785e-10 -1.4895e-09 2.90554 0.965183 0.102902 9.11924e-10 2.61781e-10 -1.4895e-09 10.2786 0.731801 0.0259123 9.11915e-10 2.61787e-10 -1.4895e-09 2.22167 -0.733487 -0.20892 7.61118e-14 9.24265e-14 1.06601e-13 -93.4178 17.9632 11.2129 10.8858 -4.57246 -19.5982 1.25358 29.2209 -4.53527 -2.69559e-09 -1.59659e-09 5.4277e-10 -4.64226e-09 -2.70568e-09 9.99068e-10 -2.69559e-09 -1.59659e-09 5.42779e-10 -7.73091 5.47488 -0.417314 -2.69559e-09 -1.59659e-09 5.42761e-10 -2.90554 0.965183 -0.102902 -2.69559e-09 -1.59659e-09 5.42769e-10 -10.2786 0.731801 -0.0259123 -2.69558e-09 -1.59659e-09 5.42754e-10 -2.22167 -0.733487 0.20892 -2.03217e-16 0.0 -3.88251e-19 0.983511 -4.0035 27.7747 0.040661 -1.37419 0.334955 -4.63618 -4.80758 -24.018 2.03217e-16 0.0 3.88251e-19 -3.72827 -4.27384 -45.1728 0.0383288 12.6768 0.177784 20.0433 -16.1792 59.9982
-3.43534 82.131 47.8341 -5.7425 -3.5384 8.127 -1.11557 -9.88852 1.43707 -1.14573 -11.4123 0.0258281 -9.73118 16.8401 -15.0007 18.4813 -6.29569 -28.1995 -0.0 0.0 0.0 -0.0 0.0 0.0 4.57941e-14 1.54166e-13 5.65108e-14 89.6758 8.52654 -13.6659 -12.8906 -5.93076 23.5272 -2.76808 40.9153 7.0703 1.52501e-09 -2.68467e-10 -1.40678e-09 2.59045e-09 -4.03801e-10 -2.47423e-09 1.52502e-09 -2.68473e-10 -1.40679e-09 7.73091 5.47488 0.417314 1.52501e-09 -2.68473e-10 -1.40678e-09 2.90554 0.965183 0.102902 1.52502e-09 -2.68476e-10 -1.40678e-09 10.2786 0.731801 0.0259123 1.52501e-09 -2.68471e-10 -1.40678e-09 2.22167 -0.733487 -0.20892 4.5743e-14 1.54163e-13 5.64052e-14 -92.7072 17.7972 11.1203 10.8007 -4.53196 -19.4213 1.223 28.9847 -4.48836 -2.73842e-09 -1.26965e-09 1.04291e-09 -4.70592e-09 -2.13342e-09 1.86306e-09 -2.73843e-09 -1.26965e-09 1.04291e-09 -7.73091 5.47488 -0.417314 -2.73842e-09 -1.26965e-09 1.0429e-09 -2.90554 0.965183 -0.102902 -2.73843e-09 -1.26965e-09 1.04291e-09 -10.2786 0.731801 -0.0259123 -2.73842e-09 -1.26965e-09 1.0429e-09 -2.22167 -0.733487 0.20892 -2.03217e-16 0.0 -3.88251e-19 0.685909 -4.10996 27.6495 0.0400157 -1.41477 0.332931 -4.59954 -4.78339 -23.937 2.03217e-16 0.0 3.88251e-19 -4.06949 -4.44948 -44.9662 0.0396645 12.7431 0.177091 19.9148 -16.2957 59.6653
-3.40835 82.1288 47.847 -5.5367 -3.5373 8.2339 -1.62835 -9.89501 1.30784 -1.02744 -10.827 0.0221792 -9.48574 16.3188 -14.3968 17.8579 -6.05913 -27.1559 -0.0 0.0 0.0 -0.0 0.0 0.0 1.53144e-14 2.03619e-13 5.75932e-15 86.304 8.36785 -13.101 -12.4544 -5.71422 22.5573 -2.41124 39.2721 6.62416 2.06209e-09 -7.67863e-10 -1.27919e-09 3.51993e-09 -1.25571e-09 -2.2708e-09 2.0621e-09 -7.67868e-10 -1.27919e-09 7.73091 5.47488 0.417314 2.06209e-09 -7.67869e-10 -1.27919e-09 2.90554 0.965183 0.102902 2.0621e-09 -7.67871e-10 -1.2792e-09 10.2786 0.731801 0.0259123 2.06209e-09 -7.67867e-10 -1.27919e-09 2.22167 -0.733487 -0.20892 1.52039e-14 2.03621e-13 5.60014e-15 -89.1746 17.1358 10.6738 10.4455 -4.37574 -18.6788 1.08593 27.9113 -4.27763 -2.69286e-09 -9.39351e-10 1.45915e-09 -4.61888e-09 -1.55799e-09 2.58036e-09 -2.69286e-09 -9.39347e-10 1.45916e-09 -7.73091 5.47488 -0.417314 -2.69286e-09 -9.39344e-10 1.45916e-09 -2.90554 0.965183 -0.102902 -2.69287e-09 -9.39343e-10 1.45916e-09 -10.2786 0.731801 -0.0259123 -2.69286e-09 -9.39345e-10 1.45915e-09 -2.22167 -0.733487 0.20892 -2.03217e-16 0.0 -3.88251e-19 0.235234 -4.18321 26.7117 0.0380746 -1.4768 0.319202 -4.33577 -4.5341 -23.1435 2.03217e-16 0.0 3.88251e-19 -4.54057 -4.84475 -43.44 0.038975 12.8708 0.160421 18.8306 -16.6943 57.5787
-3.41824 82.1363 47.8612 -5.5363 -3.5402 8.2302 -1.96993 -9.93677 1.22408 -0.945175 -10.4637 0.0197286 -9.33301 16.0308 -14.032 17.5048 -5.93709 -26.5207 -0.0 0.0 0.0 -0.0 0.0 0.0 7.64418e-16 2.11504e-13 -2.01766e-14 84.2845 8.29553 -12.759 -12.1878 -5.58116 21.9738 -2.20935 38.2608 6.36353 2.27877e-09 -9.89273e-10 -1.19733e-09 3.89591e-09 -1.63415e-09 -2.1365e-09 2.27877e-09 -9.89277e-10 -1.19733e-09 7.73091 5.47488 0.417314 2.27877e-09 -9.89278e-10 -1.19732e-09 2.90554 0.965183 0.102902 2.27878e-09 -9.89279e-10 -1.19733e-09 10.2786 0.731801 0.0259123 2.27877e-09 -9.89277e-10 -1.19733e-09 2.22167 -0.733487 -0.20892 6.27094e-16 2.11508e-13 -2.03754e-14 -87.0735 16.7647 10.4152 10.2428 -4.28874 -18.257 1.01022 27.2951 -4.15892 -2.64684e-09 -8.38327e-10 1.55559e-09 -4.53798e-09 -1.38307e-09 2.74593e-09 -2.64684e-09 -8.38321e-10 1.5556e-09 -7.73091 5.47488 -0.417314 -2.64684e-09 -8.38317e-10 1.5556e-09 -2.90554 0.965183 -0.102902 -2.64685e-09 -8.38317e-10 1.5556e-09 -10.2786 0.731801 -0.0259123 -2.64685e-09 -8.3832e-10 1.55559e-09 -2.22167 -0.733487 0.20892 -2.03217e-16 0.0 -3.88251e-19 -0.063299 -4.23922 26.1498 0.0368959 -1.5174 0.310908 -4.17922 -4.37923 -22.6722 2.03217e-16 0.0 3.88251e-19 -4.84177 -5.10062 -42.5278 0.0388408 12.9498 0.15161 18.17 -16.8965 56.3142
